<svg width="267" height="165" viewBox="0 0 267 165" fill="none" xmlns="http://www.w3.org/2000/svg">
<g filter="url(#filter0_d_113_88)">
<path d="M133.163 4.26548C133.857 2.65355 136.143 2.65356 136.837 4.26548L154.809 45.9982C155.098 46.6705 155.732 47.131 156.461 47.1986L201.705 51.3948C203.452 51.5569 204.159 53.7305 202.84 54.8888L168.704 84.8773C168.154 85.3605 167.912 86.1055 168.073 86.8196L178.063 131.146C178.449 132.858 176.6 134.201 175.091 133.305L136.021 110.106C135.392 109.733 134.608 109.733 133.979 110.106L94.9094 133.305C93.4003 134.201 91.5513 132.858 91.9372 131.146L101.927 86.8196C102.088 86.1055 101.846 85.3605 101.296 84.8773L67.1598 54.8888C65.8413 53.7305 66.5476 51.5569 68.2951 51.3948L113.539 47.1986C114.268 47.131 114.902 46.6705 115.191 45.9982L133.163 4.26548Z" fill="url(#paint0_radial_113_88)"/>
</g>
<g filter="url(#filter1_d_113_88)">
<path d="M220.163 79.2655C220.857 77.6536 223.143 77.6536 223.837 79.2655L233.697 102.163C233.987 102.835 234.621 103.295 235.35 103.363L260.173 105.665C261.921 105.827 262.627 108.001 261.308 109.159L242.579 125.613C242.029 126.096 241.787 126.841 241.948 127.555L247.429 151.875C247.815 153.587 245.966 154.931 244.457 154.035L223.021 141.306C222.392 140.933 221.608 140.933 220.979 141.306L199.543 154.035C198.034 154.931 196.185 153.587 196.571 151.875L202.052 127.555C202.213 126.841 201.971 126.096 201.421 125.613L182.692 109.159C181.373 108.001 182.079 105.827 183.827 105.665L208.65 103.363C209.379 103.295 210.013 102.835 210.303 102.163L220.163 79.2655Z" fill="url(#paint1_radial_113_88)"/>
</g>
<g filter="url(#filter2_d_113_88)">
<path d="M43.1631 79.2655C43.8573 77.6536 46.1427 77.6536 46.8369 79.2655L56.6974 102.163C56.987 102.835 57.6207 103.295 58.3496 103.363L83.1732 105.665C84.9207 105.827 85.627 108.001 84.3085 109.159L65.5791 125.613C65.0291 126.096 64.787 126.841 64.948 127.555L70.4292 151.875C70.8151 153.587 68.9661 154.931 67.4571 154.035L46.0211 141.306C45.3917 140.933 44.6083 140.933 43.9789 141.306L22.5429 154.035C21.0339 154.931 19.1849 153.587 19.5708 151.875L25.052 127.555C25.213 126.841 24.9709 126.096 24.4209 125.613L5.69154 109.159C4.37301 108.001 5.07927 105.827 6.82681 105.665L31.6504 103.363C32.3793 103.295 33.013 102.835 33.3026 102.163L43.1631 79.2655Z" fill="url(#paint2_radial_113_88)"/>
</g>
<defs>
<filter id="filter0_d_113_88" x="62.4771" y="3.05664" width="145.046" height="138.535" filterUnits="userSpaceOnUse" color-interpolation-filters="sRGB">
<feFlood flood-opacity="0" result="BackgroundImageFix"/>
<feColorMatrix in="SourceAlpha" type="matrix" values="0 0 0 0 0 0 0 0 0 0 0 0 0 0 0 0 0 0 127 0" result="hardAlpha"/>
<feOffset dy="4"/>
<feGaussianBlur stdDeviation="2"/>
<feComposite in2="hardAlpha" operator="out"/>
<feColorMatrix type="matrix" values="0 0 0 0 0 0 0 0 0 0 0 0 0 0 0 0 0 0 0.25 0"/>
<feBlend mode="normal" in2="BackgroundImageFix" result="effect1_dropShadow_113_88"/>
<feBlend mode="normal" in="SourceGraphic" in2="effect1_dropShadow_113_88" result="shape"/>
</filter>
<filter id="filter1_d_113_88" x="178.009" y="78.0566" width="87.9824" height="84.2642" filterUnits="userSpaceOnUse" color-interpolation-filters="sRGB">
<feFlood flood-opacity="0" result="BackgroundImageFix"/>
<feColorMatrix in="SourceAlpha" type="matrix" values="0 0 0 0 0 0 0 0 0 0 0 0 0 0 0 0 0 0 127 0" result="hardAlpha"/>
<feOffset dy="4"/>
<feGaussianBlur stdDeviation="2"/>
<feComposite in2="hardAlpha" operator="out"/>
<feColorMatrix type="matrix" values="0 0 0 0 0 0 0 0 0 0 0 0 0 0 0 0 0 0 0.25 0"/>
<feBlend mode="normal" in2="BackgroundImageFix" result="effect1_dropShadow_113_88"/>
<feBlend mode="normal" in="SourceGraphic" in2="effect1_dropShadow_113_88" result="shape"/>
</filter>
<filter id="filter2_d_113_88" x="1.00882" y="78.0566" width="87.9824" height="84.2642" filterUnits="userSpaceOnUse" color-interpolation-filters="sRGB">
<feFlood flood-opacity="0" result="BackgroundImageFix"/>
<feColorMatrix in="SourceAlpha" type="matrix" values="0 0 0 0 0 0 0 0 0 0 0 0 0 0 0 0 0 0 127 0" result="hardAlpha"/>
<feOffset dy="4"/>
<feGaussianBlur stdDeviation="2"/>
<feComposite in2="hardAlpha" operator="out"/>
<feColorMatrix type="matrix" values="0 0 0 0 0 0 0 0 0 0 0 0 0 0 0 0 0 0 0.25 0"/>
<feBlend mode="normal" in2="BackgroundImageFix" result="effect1_dropShadow_113_88"/>
<feBlend mode="normal" in="SourceGraphic" in2="effect1_dropShadow_113_88" result="shape"/>
</filter>
<radialGradient id="paint0_radial_113_88" cx="0" cy="0" r="1" gradientUnits="userSpaceOnUse" gradientTransform="translate(135 75) rotate(90) scale(75)">
<stop stop-color="#F2CA53"/>
<stop offset="0.453125" stop-color="#D4AF37"/>
<stop offset="1" stop-color="#B79417"/>
</radialGradient>
<radialGradient id="paint1_radial_113_88" cx="0" cy="0" r="1" gradientUnits="userSpaceOnUse" gradientTransform="translate(222 120) rotate(90) scale(45)">
<stop stop-color="#F2CA53"/>
<stop offset="0.453125" stop-color="#D4AF37"/>
<stop offset="1" stop-color="#B79417"/>
</radialGradient>
<radialGradient id="paint2_radial_113_88" cx="0" cy="0" r="1" gradientUnits="userSpaceOnUse" gradientTransform="translate(45 120) rotate(90) scale(45)">
<stop stop-color="#F2CA53"/>
<stop offset="0.453125" stop-color="#D4AF37"/>
<stop offset="1" stop-color="#B79417"/>
</radialGradient>
</defs>
</svg>
