<svg id="Layer_1" data-name="Layer 1" xmlns="http://www.w3.org/2000/svg" viewBox="0 0 228.09 156.09"><defs><style>.cls-1{fill:#333;}.cls-2{fill:#0c0;}</style></defs><path class="cls-1" d="M23.85,113.53V102.1h7.49v1.27H25.27v3.68h5.95v1.27H25.27v3.94h6.07v1.27Z"/><path class="cls-1" d="M39.14,113.53v-1.16a4,4,0,0,1-3,1.37,2.33,2.33,0,0,1-2.64-2.64v-5.85h1.29v5.45c0,1.46.74,1.89,1.85,1.89a3.16,3.16,0,0,0,2.45-1.25v-6.09h1.28v8.28Z"/><path class="cls-1" d="M43,113.53v-8.28h1.28v1.34A3.54,3.54,0,0,1,47,105.08v1.32a2.51,2.51,0,0,0-.51-.05,3,3,0,0,0-2.25,1.32v5.86Z"/><path class="cls-1" d="M48.17,109.38a4.1,4.1,0,1,1,4.1,4.36A4.06,4.06,0,0,1,48.17,109.38Zm6.84,0c0-1.68-1-3.18-2.74-3.18s-2.76,1.5-2.76,3.18,1,3.21,2.76,3.21S55,111.08,55,109.38Z"/><path class="cls-1" d="M59.74,112.28v4.4H58.46V105.25h1.28v1.24a3.46,3.46,0,0,1,2.79-1.44c2.18,0,3.69,1.64,3.69,4.33s-1.51,4.36-3.69,4.36A3.41,3.41,0,0,1,59.74,112.28Zm5.13-2.9c0-1.83-1-3.18-2.66-3.18a3.07,3.07,0,0,0-2.47,1.32v3.73a3.09,3.09,0,0,0,2.47,1.34C63.87,112.59,64.87,111.22,64.87,109.38Z"/><path class="cls-1" d="M67.78,109.38a4.13,4.13,0,0,1,4.08-4.33c2.5,0,4,2,4,4.44v.32h-6.7a2.92,2.92,0,0,0,3,2.86,3.6,3.6,0,0,0,2.55-1l.62.84A4.53,4.53,0,0,1,72,113.74,4.11,4.11,0,0,1,67.78,109.38Zm4.06-3.27a2.77,2.77,0,0,0-2.71,2.76h5.44A2.69,2.69,0,0,0,71.84,106.11Z"/><path class="cls-1" d="M83.08,113.53v-.94a3.57,3.57,0,0,1-2.74,1.15A2.76,2.76,0,0,1,77.45,111a2.71,2.71,0,0,1,2.89-2.72,3.45,3.45,0,0,1,2.74,1.13v-1.49c0-1.11-.89-1.75-2.09-1.75a3.27,3.27,0,0,0-2.53,1.15l-.6-.89a4.31,4.31,0,0,1,3.31-1.37c1.74,0,3.2.79,3.2,2.79v5.69Zm0-1.75v-1.56a2.76,2.76,0,0,0-2.27-1,1.82,1.82,0,1,0,0,3.61A2.74,2.74,0,0,0,83.08,111.78Z"/><path class="cls-1" d="M92.53,113.53v-5.41c0-1.46-.74-1.92-1.85-1.92a3.19,3.19,0,0,0-2.45,1.28v6H86.94v-8.28h1.29v1.2a4.11,4.11,0,0,1,2.94-1.4,2.35,2.35,0,0,1,2.64,2.67v5.81Z"/><path class="cls-1" d="M100.17,111.92l.84-1.08a4.85,4.85,0,0,0,3.6,1.63c2,0,2.69-1.1,2.69-2,0-3-6.77-1.32-6.77-5.4,0-1.88,1.68-3.17,3.93-3.17a5.37,5.37,0,0,1,4.06,1.59l-.86,1a4.36,4.36,0,0,0-3.31-1.37c-1.37,0-2.34.73-2.34,1.81,0,2.57,6.77,1.1,6.77,5.37,0,1.66-1.14,3.36-4.22,3.36A5.69,5.69,0,0,1,100.17,111.92Z"/><path class="cls-1" d="M110.49,115.6a1.9,1.9,0,0,0,.7.14,1.2,1.2,0,0,0,1.24-.87l.55-1.25-3.47-8.37h1.39l2.76,6.79,2.74-6.79h1.41l-4.15,10a2.46,2.46,0,0,1-2.43,1.68,4,4,0,0,1-.94-.12Z"/><path class="cls-1" d="M129.14,113.53v-5.62c0-1-.47-1.71-1.53-1.71a2.9,2.9,0,0,0-2.19,1.26v6.07h-1.29v-5.62c0-1-.44-1.71-1.52-1.71a2.89,2.89,0,0,0-2.18,1.28v6h-1.28v-8.28h1.28v1.2a3.58,3.58,0,0,1,2.68-1.4,2.12,2.12,0,0,1,2.22,1.54,3.51,3.51,0,0,1,2.78-1.54c1.51,0,2.31.84,2.31,2.5v6Z"/><path class="cls-1" d="M134.28,112.28v4.4H133V105.25h1.28v1.24a3.46,3.46,0,0,1,2.79-1.44c2.18,0,3.69,1.64,3.69,4.33s-1.51,4.36-3.69,4.36A3.41,3.41,0,0,1,134.28,112.28Zm5.12-2.9c0-1.83-1-3.18-2.65-3.18a3.07,3.07,0,0,0-2.47,1.32v3.73a3.09,3.09,0,0,0,2.47,1.34C138.41,112.59,139.4,111.22,139.4,109.38Z"/><path class="cls-1" d="M142.32,109.38a4.1,4.1,0,1,1,4.09,4.36A4.06,4.06,0,0,1,142.32,109.38Zm6.84,0c0-1.68-1-3.18-2.75-3.18s-2.75,1.5-2.75,3.18,1,3.21,2.75,3.21S149.16,111.08,149.16,109.38Z"/><path class="cls-1" d="M151.88,112.43l.67-.92a3.76,3.76,0,0,0,2.73,1.18c1.26,0,1.95-.6,1.95-1.42,0-2-5.12-.77-5.12-3.84,0-1.28,1.11-2.38,3.08-2.38a4.18,4.18,0,0,1,3.07,1.2l-.6.89a3.24,3.24,0,0,0-2.47-1c-1.13,0-1.83.57-1.83,1.31,0,1.81,5.12.61,5.12,3.83,0,1.39-1.11,2.51-3.26,2.51A4.41,4.41,0,0,1,151.88,112.43Z"/><path class="cls-1" d="M160.35,103.22a.87.87,0,1,1,1.73,0,.87.87,0,0,1-1.73,0Zm.22,10.31v-8.28h1.29v8.28Z"/><path class="cls-1" d="M170,113.53v-1.16a4.07,4.07,0,0,1-3,1.37,2.33,2.33,0,0,1-2.64-2.64v-5.85h1.28v5.45c0,1.46.74,1.89,1.85,1.89a3.17,3.17,0,0,0,2.46-1.25v-6.09h1.28v8.28Z"/><path class="cls-1" d="M183.86,113.53v-5.62c0-1-.46-1.71-1.52-1.71a2.9,2.9,0,0,0-2.2,1.26v6.07h-1.28v-5.62c0-1-.45-1.71-1.53-1.71a2.86,2.86,0,0,0-2.17,1.28v6h-1.29v-8.28h1.29v1.2a3.56,3.56,0,0,1,2.67-1.4,2.12,2.12,0,0,1,2.23,1.54,3.48,3.48,0,0,1,2.77-1.54c1.51,0,2.32.84,2.32,2.5v6Z"/><path class="cls-1" d="M23.32,130a4.1,4.1,0,1,1,4.1,4.35A4.06,4.06,0,0,1,23.32,130Zm6.84,0c0-1.68-1-3.19-2.74-3.19s-2.76,1.51-2.76,3.19,1,3.21,2.76,3.21S30.16,131.65,30.16,130Z"/><path class="cls-1" d="M39.19,134.1v-5.42c0-1.45-.74-1.92-1.85-1.92a3.2,3.2,0,0,0-2.45,1.29v6H33.6v-8.28h1.29V127a4.11,4.11,0,0,1,3-1.4,2.35,2.35,0,0,1,2.64,2.67v5.81Z"/><path class="cls-1" d="M47.52,134.1V122.67h5.09a2.89,2.89,0,0,1,3.21,2.91,2.59,2.59,0,0,1-2,2.62A2.85,2.85,0,0,1,56,131a3,3,0,0,1-3.31,3.09Zm6.82-8.31a1.79,1.79,0,0,0-2-1.85H48.94v3.68h3.43A1.77,1.77,0,0,0,54.34,125.79Zm.22,5.07a1.93,1.93,0,0,0-2.12-2h-3.5v3.94h3.5A1.88,1.88,0,0,0,54.56,130.86Z"/><path class="cls-1" d="M58,123.78a.87.87,0,1,1,.86.86A.87.87,0,0,1,58,123.78Zm.22,10.32v-8.28h1.29v8.28Z"/><path class="cls-1" d="M61.63,130a4.1,4.1,0,1,1,4.09,4.35A4.05,4.05,0,0,1,61.63,130Zm6.83,0c0-1.68-1-3.19-2.74-3.19S63,128.27,63,130s1,3.21,2.76,3.21S68.46,131.65,68.46,130Z"/><path class="cls-1" d="M73.2,132.85v4.4H71.91V125.82H73.2v1.23A3.47,3.47,0,0,1,76,125.62c2.18,0,3.68,1.64,3.68,4.33s-1.5,4.35-3.68,4.35A3.38,3.38,0,0,1,73.2,132.85Zm5.12-2.9c0-1.83-1-3.19-2.66-3.19a3,3,0,0,0-2.46,1.32v3.74a3.06,3.06,0,0,0,2.46,1.34C77.33,133.16,78.32,131.78,78.32,130Z"/><path class="cls-1" d="M81.23,130a4.11,4.11,0,1,1,4.1,4.35A4.06,4.06,0,0,1,81.23,130Zm6.84,0c0-1.68-1-3.19-2.74-3.19s-2.76,1.51-2.76,3.19,1,3.21,2.76,3.21S88.07,131.65,88.07,130Z"/><path class="cls-1" d="M91.52,134.1V122.67H92.8V134.1Z"/><path class="cls-1" d="M95.12,136.17a1.86,1.86,0,0,0,.7.14,1.18,1.18,0,0,0,1.23-.88l.55-1.25-3.46-8.36h1.39l2.76,6.79,2.74-6.79h1.4l-4.14,10a2.47,2.47,0,0,1-2.44,1.68,4.1,4.1,0,0,1-.94-.12Z"/><path class="cls-1" d="M113.76,134.1v-5.62c0-1-.46-1.72-1.52-1.72A2.91,2.91,0,0,0,110,128v6.07h-1.28v-5.62c0-1-.45-1.72-1.53-1.72a2.87,2.87,0,0,0-2.17,1.29v6h-1.29v-8.28h1.29V127a3.56,3.56,0,0,1,2.67-1.4,2.12,2.12,0,0,1,2.23,1.54,3.47,3.47,0,0,1,2.77-1.54c1.51,0,2.32.84,2.32,2.5v6Z"/><path class="cls-1" d="M117.14,130a4.14,4.14,0,0,1,4.08-4.33c2.5,0,4,1.95,4,4.43v.33h-6.7a2.91,2.91,0,0,0,3,2.86,3.64,3.64,0,0,0,2.55-1l.62.84a4.52,4.52,0,0,1-3.29,1.26A4.1,4.1,0,0,1,117.14,130Zm4.06-3.27a2.75,2.75,0,0,0-2.7,2.76h5.43A2.68,2.68,0,0,0,121.2,126.68Z"/><path class="cls-1" d="M127.27,134.1v-8.28h1.29v1.34a3.48,3.48,0,0,1,2.75-1.51V127a2.44,2.44,0,0,0-.51,0,3,3,0,0,0-2.24,1.32v5.86Z"/><path class="cls-1" d="M132.21,133l.67-.92a3.74,3.74,0,0,0,2.72,1.18c1.27,0,2-.6,2-1.42,0-2-5.12-.78-5.12-3.84,0-1.29,1.11-2.38,3.08-2.38a4.18,4.18,0,0,1,3.07,1.2l-.6.89a3.22,3.22,0,0,0-2.47-1c-1.13,0-1.83.57-1.83,1.3,0,1.82,5.12.62,5.12,3.84,0,1.39-1.11,2.5-3.25,2.5A4.39,4.39,0,0,1,132.21,133Z"/><path class="cls-1" d="M28.27,35.31V24.54L25.8,27.05,24,25.16l4.68-4.69h2.75V35.31Z"/><path class="cls-1" d="M37.41,35.31V24.54l-2.47,2.51-1.8-1.89,4.67-4.69h2.76V35.31Z"/><path class="cls-1" d="M44.79,27.16V23.73H43.7V22.22h1.09V20.43h1.74v1.79h1.33v1.51H46.53v3c0,.41.22.72.6.72a.93.93,0,0,0,.6-.19l.37,1.31a2.17,2.17,0,0,1-1.45.42A1.64,1.64,0,0,1,44.79,27.16Z"/><path class="cls-1" d="M53.5,28.8v-4c0-.91-.48-1.19-1.22-1.19a1.93,1.93,0,0,0-1.5.77V28.8H49.05V19.72h1.73v3.36a3.05,3.05,0,0,1,2.31-1,1.9,1.9,0,0,1,2.14,2.07V28.8Z"/><path class="cls-2" d="M62.28,79.61l5.51-7.74A21,21,0,0,0,83,78.32c5.59,0,8.31-2.58,8.31-5.3,0-8.46-27.51-2.65-27.51-20.63,0-8,6.88-14.54,18.12-14.54,7.6,0,13.9,2.29,18.63,6.66L94.87,52A20.54,20.54,0,0,0,81,46.73c-4.37,0-6.8,1.93-6.8,4.8,0,7.59,27.43,2.51,27.43,20.34,0,8.74-6.23,15.33-19.12,15.33C73.31,87.2,66.72,84.12,62.28,79.61Z"/><path class="cls-2" d="M108.47,86.34V38.57h25.14c9.1,0,13.75,5.8,13.75,12.17,0,6-3.72,10-8.23,11,5.08.79,9.16,5.73,9.16,11.75,0,7.16-4.79,12.89-13.89,12.89ZM137,52.53c0-3-2.15-5.23-5.59-5.23H118.64V57.69h12.75C134.83,57.69,137,55.54,137,52.53ZM137.91,72c0-3-2.15-5.58-6.16-5.58H118.64v11.1h13.11C135.62,77.53,137.91,75.45,137.91,72Z"/><path class="cls-2" d="M156,86.34V38.57H178.3c10.39,0,16,7,16,15.39s-5.73,15.4-16,15.4H166.12v17ZM184,54c0-4-3-6.44-7-6.44H166.12V60.41h10.82C181,60.41,184,57.9,184,54Z"/><polygon class="cls-2" points="23.75 50.28 23.75 86.34 57.56 86.34 57.56 77.39 33.92 77.39 33.92 66.57 57.05 66.57 57.05 57.62 33.92 57.62 33.92 50.28 23.75 50.28 23.75 50.28"/><polygon class="cls-1" points="23.75 38.57 23.75 47.52 33.92 47.52 57.56 47.52 57.56 38.57 23.75 38.57"/></svg>