<svg width="313" height="179" viewBox="0 0 313 179" fill="none" xmlns="http://www.w3.org/2000/svg">
<g filter="url(#filter0_d_113_87)">
<path d="M153.163 4.26548C153.857 2.65355 156.143 2.65356 156.837 4.26548L174.809 45.9982C175.098 46.6705 175.732 47.131 176.461 47.1986L221.705 51.3948C223.452 51.5569 224.159 53.7305 222.84 54.8888L188.704 84.8773C188.154 85.3605 187.912 86.1055 188.073 86.8196L198.063 131.146C198.449 132.858 196.6 134.201 195.091 133.305L156.021 110.106C155.392 109.733 154.608 109.733 153.979 110.106L114.909 133.305C113.4 134.201 111.551 132.858 111.937 131.146L121.927 86.8196C122.088 86.1055 121.846 85.3605 121.296 84.8773L87.1598 54.8888C85.8413 53.7305 86.5476 51.5569 88.2951 51.3948L133.539 47.1986C134.268 47.131 134.902 46.6705 135.191 45.9982L153.163 4.26548Z" fill="url(#paint0_radial_113_87)"/>
</g>
<g filter="url(#filter1_d_113_87)">
<path d="M65.1631 80.2655C65.8573 78.6536 68.1427 78.6536 68.8369 80.2655L78.6974 103.163C78.987 103.835 79.6207 104.295 80.3496 104.363L105.173 106.665C106.921 106.827 107.627 109.001 106.308 110.159L87.5791 126.613C87.0291 127.096 86.787 127.841 86.948 128.555L92.4292 152.875C92.8151 154.587 90.9661 155.931 89.4571 155.035L68.0211 142.306C67.3917 141.933 66.6083 141.933 65.9789 142.306L44.5429 155.035C43.0339 155.931 41.1849 154.587 41.5708 152.875L47.052 128.555C47.213 127.841 46.9709 127.096 46.4209 126.613L27.6915 110.159C26.373 109.001 27.0793 106.827 28.8268 106.665L53.6504 104.363C54.3793 104.295 55.013 103.835 55.3026 103.163L65.1631 80.2655Z" fill="url(#paint1_radial_113_87)"/>
</g>
<g filter="url(#filter2_d_113_87)">
<path d="M242.163 80.2655C242.857 78.6536 245.143 78.6536 245.837 80.2655L255.697 103.163C255.987 103.835 256.621 104.295 257.35 104.363L282.173 106.665C283.921 106.827 284.627 109.001 283.308 110.159L264.579 126.613C264.029 127.096 263.787 127.841 263.948 128.555L269.429 152.875C269.815 154.587 267.966 155.931 266.457 155.035L245.021 142.306C244.392 141.933 243.608 141.933 242.979 142.306L221.543 155.035C220.034 155.931 218.185 154.587 218.571 152.875L224.052 128.555C224.213 127.841 223.971 127.096 223.421 126.613L204.692 110.159C203.373 109.001 204.079 106.827 205.827 106.665L230.65 104.363C231.379 104.295 232.013 103.835 232.303 103.163L242.163 80.2655Z" fill="url(#paint2_radial_113_87)"/>
</g>
<g filter="url(#filter3_d_113_87)">
<path d="M291.074 137.262C291.413 136.434 292.587 136.434 292.926 137.262L296.909 146.999C297.049 147.342 297.368 147.58 297.737 147.616L307.852 148.603C308.711 148.687 309.068 149.747 308.434 150.333L300.73 157.456C300.471 157.696 300.358 158.055 300.431 158.4L302.674 168.872C302.859 169.735 301.915 170.397 301.166 169.929L292.53 164.531C292.206 164.329 291.794 164.329 291.47 164.531L282.834 169.929C282.085 170.397 281.141 169.735 281.326 168.872L283.569 158.4C283.642 158.055 283.529 157.696 283.27 157.456L275.566 150.333C274.932 149.747 275.289 148.687 276.148 148.603L286.263 147.616C286.632 147.58 286.951 147.342 287.091 146.999L291.074 137.262Z" fill="url(#paint3_radial_113_87)"/>
</g>
<g filter="url(#filter4_d_113_87)">
<path d="M20.0745 137.262C20.4134 136.434 21.5866 136.434 21.9255 137.262L25.9089 146.999C26.0494 147.342 26.3682 147.58 26.7373 147.616L36.8522 148.603C37.7112 148.687 38.0677 149.747 37.434 150.333L29.7304 157.456C29.4712 157.696 29.3576 158.055 29.4315 158.4L31.6736 168.872C31.8585 169.735 30.9147 170.397 30.1657 169.929L21.53 164.531C21.2057 164.329 20.7943 164.329 20.47 164.531L11.8343 169.929C11.0853 170.397 10.1415 169.735 10.3264 168.872L12.5685 158.4C12.6424 158.055 12.5288 157.696 12.2696 157.456L4.56603 150.333C3.93234 149.747 4.28878 148.687 5.14779 148.603L15.2627 147.616C15.6318 147.58 15.9506 147.342 16.0911 146.999L20.0745 137.262Z" fill="url(#paint4_radial_113_87)"/>
</g>
<defs>
<filter id="filter0_d_113_87" x="82.4771" y="3.05664" width="145.046" height="138.535" filterUnits="userSpaceOnUse" color-interpolation-filters="sRGB">
<feFlood flood-opacity="0" result="BackgroundImageFix"/>
<feColorMatrix in="SourceAlpha" type="matrix" values="0 0 0 0 0 0 0 0 0 0 0 0 0 0 0 0 0 0 127 0" result="hardAlpha"/>
<feOffset dy="4"/>
<feGaussianBlur stdDeviation="2"/>
<feComposite in2="hardAlpha" operator="out"/>
<feColorMatrix type="matrix" values="0 0 0 0 0 0 0 0 0 0 0 0 0 0 0 0 0 0 0.25 0"/>
<feBlend mode="normal" in2="BackgroundImageFix" result="effect1_dropShadow_113_87"/>
<feBlend mode="normal" in="SourceGraphic" in2="effect1_dropShadow_113_87" result="shape"/>
</filter>
<filter id="filter1_d_113_87" x="23.0088" y="79.0566" width="87.9824" height="84.2642" filterUnits="userSpaceOnUse" color-interpolation-filters="sRGB">
<feFlood flood-opacity="0" result="BackgroundImageFix"/>
<feColorMatrix in="SourceAlpha" type="matrix" values="0 0 0 0 0 0 0 0 0 0 0 0 0 0 0 0 0 0 127 0" result="hardAlpha"/>
<feOffset dy="4"/>
<feGaussianBlur stdDeviation="2"/>
<feComposite in2="hardAlpha" operator="out"/>
<feColorMatrix type="matrix" values="0 0 0 0 0 0 0 0 0 0 0 0 0 0 0 0 0 0 0.25 0"/>
<feBlend mode="normal" in2="BackgroundImageFix" result="effect1_dropShadow_113_87"/>
<feBlend mode="normal" in="SourceGraphic" in2="effect1_dropShadow_113_87" result="shape"/>
</filter>
<filter id="filter2_d_113_87" x="200.009" y="79.0566" width="87.9824" height="84.2642" filterUnits="userSpaceOnUse" color-interpolation-filters="sRGB">
<feFlood flood-opacity="0" result="BackgroundImageFix"/>
<feColorMatrix in="SourceAlpha" type="matrix" values="0 0 0 0 0 0 0 0 0 0 0 0 0 0 0 0 0 0 127 0" result="hardAlpha"/>
<feOffset dy="4"/>
<feGaussianBlur stdDeviation="2"/>
<feComposite in2="hardAlpha" operator="out"/>
<feColorMatrix type="matrix" values="0 0 0 0 0 0 0 0 0 0 0 0 0 0 0 0 0 0 0.25 0"/>
<feBlend mode="normal" in2="BackgroundImageFix" result="effect1_dropShadow_113_87"/>
<feBlend mode="normal" in="SourceGraphic" in2="effect1_dropShadow_113_87" result="shape"/>
</filter>
<filter id="filter3_d_113_87" x="271.244" y="136.641" width="41.5128" height="41.4429" filterUnits="userSpaceOnUse" color-interpolation-filters="sRGB">
<feFlood flood-opacity="0" result="BackgroundImageFix"/>
<feColorMatrix in="SourceAlpha" type="matrix" values="0 0 0 0 0 0 0 0 0 0 0 0 0 0 0 0 0 0 127 0" result="hardAlpha"/>
<feOffset dy="4"/>
<feGaussianBlur stdDeviation="2"/>
<feComposite in2="hardAlpha" operator="out"/>
<feColorMatrix type="matrix" values="0 0 0 0 0 0 0 0 0 0 0 0 0 0 0 0 0 0 0.25 0"/>
<feBlend mode="normal" in2="BackgroundImageFix" result="effect1_dropShadow_113_87"/>
<feBlend mode="normal" in="SourceGraphic" in2="effect1_dropShadow_113_87" result="shape"/>
</filter>
<filter id="filter4_d_113_87" x="0.243652" y="136.641" width="41.5127" height="41.4429" filterUnits="userSpaceOnUse" color-interpolation-filters="sRGB">
<feFlood flood-opacity="0" result="BackgroundImageFix"/>
<feColorMatrix in="SourceAlpha" type="matrix" values="0 0 0 0 0 0 0 0 0 0 0 0 0 0 0 0 0 0 127 0" result="hardAlpha"/>
<feOffset dy="4"/>
<feGaussianBlur stdDeviation="2"/>
<feComposite in2="hardAlpha" operator="out"/>
<feColorMatrix type="matrix" values="0 0 0 0 0 0 0 0 0 0 0 0 0 0 0 0 0 0 0.25 0"/>
<feBlend mode="normal" in2="BackgroundImageFix" result="effect1_dropShadow_113_87"/>
<feBlend mode="normal" in="SourceGraphic" in2="effect1_dropShadow_113_87" result="shape"/>
</filter>
<radialGradient id="paint0_radial_113_87" cx="0" cy="0" r="1" gradientUnits="userSpaceOnUse" gradientTransform="translate(155 75) rotate(90) scale(75)">
<stop stop-color="white"/>
<stop offset="0.390625" stop-color="#E5E4E2"/>
<stop offset="0.770833" stop-color="#C9C8C6"/>
</radialGradient>
<radialGradient id="paint1_radial_113_87" cx="0" cy="0" r="1" gradientUnits="userSpaceOnUse" gradientTransform="translate(67 121) rotate(90) scale(45)">
<stop stop-color="white"/>
<stop offset="0.34375" stop-color="#E5E4E2"/>
<stop offset="0.770833" stop-color="#C9C8C6"/>
</radialGradient>
<radialGradient id="paint2_radial_113_87" cx="0" cy="0" r="1" gradientUnits="userSpaceOnUse" gradientTransform="translate(244 121) rotate(90) scale(45)">
<stop stop-color="white"/>
<stop offset="0.34375" stop-color="#E5E4E2"/>
<stop offset="0.770833" stop-color="#C9C8C6"/>
</radialGradient>
<radialGradient id="paint3_radial_113_87" cx="0" cy="0" r="1" gradientUnits="userSpaceOnUse" gradientTransform="translate(292 155) rotate(90) scale(20 19)">
<stop stop-color="white"/>
<stop offset="0.265625" stop-color="#E5E4E2"/>
<stop offset="0.770833" stop-color="#C9C8C6"/>
</radialGradient>
<radialGradient id="paint4_radial_113_87" cx="0" cy="0" r="1" gradientUnits="userSpaceOnUse" gradientTransform="translate(21 155) rotate(90) scale(20 19)">
<stop stop-color="white"/>
<stop offset="0.265625" stop-color="#E5E4E2"/>
<stop offset="0.770833" stop-color="#C9C8C6"/>
</radialGradient>
</defs>
</svg>
